<svg width="32" height="32" viewBox="0 0 32 32" fill="none" xmlns="http://www.w3.org/2000/svg">
<path d="M16 7.33334C15.9204 6.44928 16.1953 5.56983 16.7642 4.88845C17.3331 4.20707 18.1493 3.77957 19.0333 3.70001C19.9174 3.62044 20.7969 3.89532 21.4782 4.46418C22.1596 5.03304 22.5871 5.84928 22.6667 6.73334C23.4219 6.88231 24.1015 7.29011 24.5883 7.88644C25.0751 8.48276 25.3386 9.23024 25.3333 10C25.3355 10.4951 25.2214 10.9838 25 11.4267C25.5145 11.7962 25.9339 12.2826 26.2237 12.8459C26.5134 13.4092 26.6653 14.0332 26.6667 14.6667C26.6608 15.6534 26.2904 16.6032 25.6267 17.3333C26.1403 17.9075 26.4771 18.6178 26.5968 19.3788C26.7164 20.1398 26.6138 20.9192 26.3012 21.6233C25.9885 22.3273 25.4793 22.9262 24.8345 23.3478C24.1898 23.7694 23.437 23.9959 22.6667 24V24C22.7086 24.2243 22.731 24.4518 22.7333 24.68C22.7333 25.5641 22.3822 26.4119 21.757 27.037C21.1319 27.6621 20.2841 28.0133 19.4 28.0133C18.516 28.0133 17.6681 27.6621 17.043 27.037C16.4179 26.4119 16.0667 25.5641 16.0667 24.68L16 7.33334ZM16 7.33334C15.9851 6.51211 15.6675 5.72532 15.1081 5.12387C14.5487 4.52242 13.787 4.14866 12.969 4.0743C12.151 3.99994 11.3344 4.2302 10.6757 4.72092C10.0171 5.21164 9.56279 5.92827 9.40001 6.73334C8.63252 6.86845 7.93741 7.27029 7.43732 7.86796C6.93723 8.46563 6.6643 9.22072 6.66668 10C6.66449 10.4951 6.77867 10.9838 7.00001 11.4267C6.4855 11.7962 6.06611 12.2826 5.77635 12.8459C5.4866 13.4092 5.33476 14.0332 5.33334 14.6667C5.33922 15.6534 5.70962 16.6032 6.37334 17.3333C5.85976 17.9075 5.52291 18.6178 5.40326 19.3788C5.28361 20.1398 5.38626 20.9192 5.69887 21.6233C6.01148 22.3273 6.52075 22.9262 7.16549 23.3478C7.81023 23.7694 8.563 23.9959 9.33334 24V24C9.31365 24.2262 9.31365 24.4538 9.33334 24.68C9.33334 25.5641 9.68453 26.4119 10.3097 27.037C10.9348 27.6621 11.7826 28.0133 12.6667 28.0133C13.5507 28.0133 14.3986 27.6621 15.0237 27.037C15.6488 26.4119 16 25.5641 16 24.68V7.33334Z" stroke="#008DD2" stroke-width="2" stroke-linecap="round" stroke-linejoin="round"/>
</svg>
