<svg width="32" height="32" viewBox="0 0 32 32" fill="none" xmlns="http://www.w3.org/2000/svg">
<path d="M28 16C28 18.3734 27.2962 20.6935 25.9776 22.6668C24.6591 24.6402 22.7849 26.1783 20.5922 27.0866C18.3995 27.9948 15.9867 28.2324 13.6589 27.7694C11.3312 27.3064 9.19295 26.1635 7.51472 24.4853C5.83649 22.8071 4.6936 20.6689 4.23058 18.3411C3.76756 16.0133 4.0052 13.6005 4.91345 11.4078C5.8217 9.21509 7.35977 7.34094 9.33316 6.02236C11.3066 4.70379 13.6266 4 16 4C19.1826 4 22.2348 5.26428 24.4853 7.51472C26.7357 9.76516 28 12.8174 28 16V16ZM16 4C13.7867 4 12 9.33333 12 16C12 22.6667 13.7867 28 16 28C18.2133 28 20 22.6667 20 16C20 9.33333 18.2133 4 16 4Z" stroke="#008DD2" stroke-width="2" stroke-linecap="round" stroke-linejoin="round"/>
<path d="M25.6 23.2C23.9072 21.7783 21.8781 20.8143 19.7067 20.4C17.2645 19.8654 14.7356 19.8654 12.2934 20.4C10.1219 20.8143 8.09289 21.7783 6.40002 23.2" stroke="#008DD2" stroke-width="2" stroke-linecap="round" stroke-linejoin="round"/>
<path d="M25.6 8.79999C23.9072 10.2216 21.8781 11.1857 19.7067 11.6C18.4899 11.8712 17.2466 12.0054 16 12C14.7534 12.0054 13.5101 11.8712 12.2934 11.6C10.1219 11.1857 8.09289 10.2216 6.40002 8.79999" stroke="#008DD2" stroke-width="2" stroke-linecap="round" stroke-linejoin="round"/>
</svg>
